<?xml version="1.0" encoding="utf-8"?>
<svg viewBox="0 0 700 250" xmlns="http://www.w3.org/2000/svg" xmlns:bx="https://boxy-svg.com">
  <defs>
    <style id="bx-google-fonts">@import url(https://fonts.googleapis.com/css?family=Atomic+Age:400);</style>
    <linearGradient id="gradient-0" gradientUnits="userSpaceOnUse" x1="404.805" y1="22.563" x2="404.805" y2="119.203" gradientTransform="matrix(0.455109, 0, 0, 0.455109, 220.574555, 64.952615)">
      <stop offset="0" style="stop-color: rgba(255, 255, 255, 1)"/>
      <stop offset="1" style="stop-color: rgb(255, 196, 196);"/>
    </linearGradient>
    <linearGradient id="gradient-1" gradientUnits="userSpaceOnUse" x1="526.453" y1="136.219" x2="526.453" y2="232.859" gradientTransform="matrix(0.448265, 0, 0, 0.448265, 290.462676, 128.476461)">
      <stop offset="0" style="stop-color: rgba(255, 255, 255, 1)"/>
      <stop offset="1" style="stop-color: rgb(147, 177, 255);"/>
    </linearGradient>
    <linearGradient id="gradient-2" gradientUnits="userSpaceOnUse" x1="447.586" y1="87.219" x2="447.586" y2="183.859" gradientTransform="matrix(0.524264, 0, 0, 0.524264, 212.932604, 87.468308)">
      <stop offset="0" style="stop-color: rgba(255, 255, 255, 1)"/>
      <stop offset="1" style="stop-color: rgb(182, 255, 148);"/>
    </linearGradient>
  </defs>
  <filter id="blur">
    <feGaussianBlur in="SourceGraphic" stdDeviation="5"/>
  </filter>
  <path d="M 113.479 153.268 C 119.723 153.421 125.227 151.246 128.232 147.889 C 129.299 146.693 129.991 145.281 130.124 145.003 C 130.203 144.837 130.269 144.661 130.325 144.479 L 138.213 118.49 C 138.68 116.957 139.957 116.649 141.003 117.866 C 141.811 118.807 142.68 119.875 143.563 121.062 C 147.199 125.946 147.492 132.371 145.553 137.554 C 143.613 142.735 139.946 144.198 141.122 145.837 C 142.302 147.482 146.924 143.397 149.932 138.539 C 152.938 133.68 153.274 125.555 150.562 118.903 C 147.848 112.25 143.896 107.973 143.142 104.502 C 143.095 104.28 143.047 104.062 142.999 103.85 C 142.92 103.49 142.952 102.876 143.074 102.481 L 143.291 101.764 C 143.883 99.818 142.786 97.761 140.836 97.17 C 138.89 96.579 136.834 97.679 136.244 99.624 L 126.681 131.135 C 126.214 132.668 124.78 133.139 123.338 132.443 C 120.691 131.164 117.497 130.38 114.042 130.295 C 104.719 130.066 97.037 135.025 96.881 141.371 C 96.726 147.714 104.156 153.042 113.479 153.268 Z" fill="#54FF54" filter="url(#blur)"/>
  <path d="M 113.479 153.268 C 119.723 153.421 125.227 151.246 128.232 147.889 C 129.299 146.693 129.991 145.281 130.124 145.003 C 130.203 144.837 130.269 144.661 130.325 144.479 L 138.213 118.49 C 138.68 116.957 139.957 116.649 141.003 117.866 C 141.811 118.807 142.68 119.875 143.563 121.062 C 147.199 125.946 147.492 132.371 145.553 137.554 C 143.613 142.735 139.946 144.198 141.122 145.837 C 142.302 147.482 146.924 143.397 149.932 138.539 C 152.938 133.68 153.274 125.555 150.562 118.903 C 147.848 112.25 143.896 107.973 143.142 104.502 C 143.095 104.28 143.047 104.062 142.999 103.85 C 142.92 103.49 142.952 102.876 143.074 102.481 L 143.291 101.764 C 143.883 99.818 142.786 97.761 140.836 97.17 C 138.89 96.579 136.834 97.679 136.244 99.624 L 126.681 131.135 C 126.214 132.668 124.78 133.139 123.338 132.443 C 120.691 131.164 117.497 130.38 114.042 130.295 C 104.719 130.066 97.037 135.025 96.881 141.371 C 96.726 147.714 104.156 153.042 113.479 153.268 Z" fill="#FFFFFF"/>
  <ellipse cx="125" cy="125" rx="90" ry="90" style="fill: none; stroke: rgb(255, 255, 255); stroke-width: 10;" filter="url(#blur)"/>
  <ellipse cx="125" cy="125" rx="90" ry="90" style="fill: none; stroke: rgb(255, 255, 255); stroke-width: 10;"/>
  <g filter="url(#blur)" transform="matrix(0.953717, -0.300706, 0.300706, 0.953717, -0.444324, 59.699207)">
    <path d="M 22.058 55 L 150 55" style="fill: none; stroke-width: 10; stroke-linecap: round; stroke: rgb(255, 84, 84);"/>
    <path d="M 177.942 55 L 100 190" style="fill: none; stroke-width: 10; stroke-linecap: round; stroke: rgb(255, 84, 84);"/>
    <path d="M 100 190 L 22.058 55" style="fill: none; stroke-width: 10; stroke-linecap: round; stroke: rgb(255, 84, 84);"/>
    <path d="M -29.884 54.549 L -13.576 82.031 L -46.192 82.031 L -29.884 54.549 Z" transform="matrix(0, 1, -1, 0, 224.385021, 84.432902)" style="fill: rgb(255, 84, 84);" bx:shape="triangle -46.192 54.549 32.616 27.482 0.5 0 1@88330eba"/>
  </g>
  <g transform="matrix(0.953717, -0.300706, 0.300706, 0.953717, -0.444324, 59.699207)">
    <path d="M 22.058 55 L 150 55" style="fill: none; stroke: rgb(255, 255, 255); stroke-width: 10; stroke-linecap: round;"/>
    <path d="M 177.942 55 L 100 190" style="fill: none; stroke: rgb(255, 255, 255); stroke-width: 10; stroke-linecap: round;"/>
    <path d="M 100 190 L 22.058 55" style="fill: none; stroke: rgb(255, 255, 255); stroke-width: 10; stroke-linecap: round;"/>
    <path d="M -29.884 54.549 L -13.576 82.031 L -46.192 82.031 L -29.884 54.549 Z" transform="matrix(0, 1, -1, 0, 224.385021, 84.432902)" style="fill: rgb(255, 255, 255);" bx:shape="triangle -46.192 54.549 32.616 27.482 0.5 0 1@88330eba"/>
  </g>
  <g transform="matrix(-0.953717, 0.300706, -0.300706, -0.953717, 250.444351, 190.314499)" filter="url(#blur)" bx:origin="0.5 0.407">
    <path d="M 22.058 55 L 150 55" style="fill: none; stroke-width: 10; stroke-linecap: round; stroke: rgb(84, 84, 255);"/>
    <path d="M 177.942 55 L 100 190" style="fill: none; stroke-width: 10; stroke-linecap: round; stroke: rgb(84, 84, 255);"/>
    <path d="M 100 190 L 22.058 55" style="fill: none; stroke-width: 10; stroke-linecap: round; stroke: rgb(84, 84, 255);"/>
    <path d="M -29.884 54.549 L -13.576 82.031 L -46.192 82.031 L -29.884 54.549 Z" transform="matrix(0, 1, -1, 0, 224.385021, 84.432902)" style="fill: rgb(84, 84, 255);" bx:shape="triangle -46.192 54.549 32.616 27.482 0.5 0 1@88330eba"/>
  </g>
  <g transform="matrix(-0.953717, 0.300706, -0.300706, -0.953717, 250.444351, 190.314499)" bx:origin="0.5 0.407">
    <path d="M 22.058 55 L 150 55" style="fill: none; stroke: rgb(255, 255, 255); stroke-width: 10; stroke-linecap: round;"/>
    <path d="M 177.942 55 L 100 190" style="fill: none; stroke: rgb(255, 255, 255); stroke-width: 10; stroke-linecap: round;"/>
    <path d="M 100 190 L 22.058 55" style="fill: none; stroke: rgb(255, 255, 255); stroke-width: 10; stroke-linecap: round;"/>
    <path d="M -29.884 54.549 L -13.576 82.031 L -46.192 82.031 L -29.884 54.549 Z" transform="matrix(0, 1, -1, 0, 224.385021, 84.432902)" style="fill: rgb(255, 255, 255);" bx:shape="triangle -46.192 54.549 32.616 27.482 0.5 0 1@88330eba"/>
  </g>
  <path d="M 427.543 45.586 L 428.543 45.586 L 428.543 57.613 L 427.543 58.726 Z M 448.461 46.835 C 448.869 47.158 449.237 47.535 449.563 47.966 C 450.123 48.699 450.556 49.566 450.863 50.566 C 451.169 51.559 451.323 52.619 451.323 53.746 L 451.323 57.493 L 450.323 58.726 L 450.323 52.746 C 450.323 51.619 450.169 50.559 449.863 49.566 C 449.556 48.566 449.123 47.699 448.563 46.966 C 448.529 46.922 448.496 46.878 448.461 46.835 Z M 470.267 46.843 C 470.67 47.164 471.035 47.538 471.363 47.966 C 471.923 48.699 472.356 49.566 472.663 50.566 C 472.963 51.559 473.113 52.619 473.113 53.746 L 473.113 91.876 L 472.113 91.876 L 472.113 52.746 C 472.113 51.619 471.963 50.559 471.663 49.566 C 471.356 48.566 470.923 47.699 470.363 46.966 C 470.331 46.925 470.299 46.884 470.267 46.843 Z M 479.526 92.876 L 480.713 92.876 C 480.62 93.696 480.389 94.476 480.023 95.216 C 479.663 95.949 479.206 96.586 478.653 97.126 C 478.106 97.666 477.479 98.096 476.773 98.416 C 476.073 98.729 475.336 98.886 474.563 98.886 L 471.253 98.886 C 470.34 98.886 469.49 98.653 468.703 98.186 C 468.047 97.788 467.461 97.276 466.947 96.652 C 467.187 96.848 467.44 97.026 467.703 97.186 C 468.49 97.653 469.34 97.886 470.253 97.886 L 473.563 97.886 C 474.336 97.886 475.073 97.729 475.773 97.416 C 476.479 97.096 477.106 96.666 477.653 96.126 C 478.206 95.586 478.663 94.949 479.023 94.216 C 479.237 93.783 479.405 93.336 479.526 92.876 Z M 463.823 53.672 L 451.323 68.616 L 451.323 98.886 L 443.023 98.886 L 443.023 97.886 L 450.323 97.886 L 450.323 67.616 L 463.823 51.476 Z M 442.023 53.591 L 428.543 68.616 L 428.543 98.886 L 420.133 98.886 L 420.133 97.886 L 427.543 97.886 L 427.543 67.616 L 442.023 51.476 Z M 677.29 159.275 L 678.29 159.275 L 678.29 165.215 L 651.95 165.215 L 651.95 205.485 L 650.95 205.485 L 650.95 164.215 L 677.29 164.215 Z M 677.358 181.495 L 678.36 181.495 L 678.29 216.645 C 678.29 217.845 678.12 218.978 677.78 220.045 C 677.44 221.112 676.977 222.048 676.39 222.855 C 675.804 223.662 675.11 224.298 674.31 224.765 C 673.517 225.238 672.674 225.475 671.78 225.475 L 670.02 225.475 L 670.02 224.475 L 670.78 224.475 C 671.674 224.475 672.517 224.238 673.31 223.765 C 674.11 223.298 674.804 222.662 675.39 221.855 C 675.977 221.048 676.44 220.112 676.78 219.045 C 677.12 217.978 677.29 216.845 677.29 215.645 Z M 669.02 212.535 L 650.16 212.535 C 649.247 212.535 648.39 212.302 647.59 211.835 C 646.899 211.423 646.281 210.889 645.737 210.234 C 646.008 210.457 646.292 210.657 646.59 210.835 C 647.39 211.302 648.247 211.535 649.16 211.535 L 669.02 211.535 Z M 629.907 159.275 L 630.907 159.275 L 630.907 165.215 L 604.567 165.215 L 604.567 205.485 L 603.567 205.485 L 603.567 164.215 L 629.907 164.215 Z M 629.975 181.495 L 630.977 181.495 L 630.907 216.645 C 630.907 217.845 630.737 218.978 630.397 220.045 C 630.057 221.112 629.594 222.048 629.007 222.855 C 628.421 223.662 627.727 224.298 626.927 224.765 C 626.134 225.238 625.291 225.475 624.397 225.475 L 622.637 225.475 L 622.637 224.475 L 623.397 224.475 C 624.291 224.475 625.134 224.238 625.927 223.765 C 626.727 223.298 627.421 222.662 628.007 221.855 C 628.594 221.048 629.057 220.112 629.397 219.045 C 629.737 217.978 629.907 216.845 629.907 215.645 Z M 621.637 212.535 L 602.777 212.535 C 601.864 212.535 601.007 212.302 600.207 211.835 C 599.516 211.423 598.898 210.889 598.354 210.234 C 598.625 210.457 598.909 210.657 599.207 210.835 C 600.007 211.302 600.864 211.535 601.777 211.535 L 621.637 211.535 Z M 511.226 226.055 C 510.886 227.142 510.419 228.092 509.826 228.905 C 509.226 229.712 508.526 230.355 507.726 230.835 C 506.932 231.315 506.079 231.555 505.166 231.555 L 503.336 231.555 L 503.336 230.555 L 504.166 230.555 C 505.079 230.555 505.932 230.315 506.726 229.835 C 507.526 229.355 508.226 228.712 508.826 227.905 C 509.419 227.092 509.886 226.142 510.226 225.055 C 510.566 223.962 510.736 222.795 510.736 221.555 L 510.706 207.595 C 511.01 208.131 511.343 208.619 511.707 209.057 L 511.736 222.555 C 511.736 223.795 511.566 224.962 511.226 226.055 Z M 531.405 177.028 C 531.86 177.402 532.277 177.841 532.656 178.345 C 533.262 179.152 533.742 180.095 534.096 181.175 C 534.449 182.255 534.626 183.415 534.626 184.655 L 534.626 205.525 L 533.626 205.525 L 533.626 183.655 C 533.626 182.415 533.449 181.255 533.096 180.175 C 532.742 179.095 532.262 178.152 531.656 177.345 C 531.574 177.236 531.491 177.13 531.405 177.028 Z M 540.859 206.525 L 542.046 206.525 C 541.952 207.345 541.722 208.125 541.356 208.865 C 540.996 209.598 540.539 210.235 539.986 210.775 C 539.432 211.315 538.806 211.745 538.106 212.065 C 537.399 212.378 536.659 212.535 535.886 212.535 L 517.366 212.535 C 516.239 212.535 515.182 212.178 514.196 211.465 C 513.678 211.088 513.202 210.643 512.767 210.129 C 512.907 210.247 513.05 210.359 513.196 210.465 C 514.182 211.178 515.239 211.535 516.366 211.535 L 534.886 211.535 C 535.659 211.535 536.399 211.378 537.106 211.065 C 537.806 210.745 538.432 210.315 538.986 209.775 C 539.539 209.235 539.996 208.598 540.356 207.865 C 540.57 207.432 540.738 206.985 540.859 206.525 Z M 382.226 112.406 C 381.886 113.493 381.419 114.443 380.826 115.256 C 380.226 116.063 379.526 116.706 378.726 117.186 C 377.932 117.666 377.079 117.906 376.166 117.906 L 374.336 117.906 L 374.336 116.906 L 375.166 116.906 C 376.079 116.906 376.932 116.666 377.726 116.186 C 378.526 115.706 379.226 115.063 379.826 114.256 C 380.419 113.443 380.886 112.493 381.226 111.406 C 381.566 110.313 381.736 109.146 381.736 107.906 L 381.706 93.946 C 382.01 94.482 382.343 94.97 382.707 95.408 L 382.736 108.906 C 382.736 110.146 382.566 111.313 382.226 112.406 Z M 402.405 63.379 C 402.86 63.753 403.277 64.192 403.656 64.696 C 404.262 65.503 404.742 66.446 405.096 67.526 C 405.449 68.606 405.626 69.766 405.626 71.006 L 405.626 91.876 L 404.626 91.876 L 404.626 70.006 C 404.626 68.766 404.449 67.606 404.096 66.526 C 403.742 65.446 403.262 64.503 402.656 63.696 C 402.574 63.587 402.491 63.481 402.405 63.379 Z M 411.859 92.876 L 413.046 92.876 C 412.952 93.696 412.722 94.476 412.356 95.216 C 411.996 95.949 411.539 96.586 410.986 97.126 C 410.432 97.666 409.806 98.096 409.106 98.416 C 408.399 98.729 407.659 98.886 406.886 98.886 L 388.366 98.886 C 387.239 98.886 386.182 98.529 385.196 97.816 C 384.678 97.439 384.202 96.994 383.767 96.48 C 383.907 96.598 384.05 96.71 384.196 96.816 C 385.182 97.529 386.239 97.886 387.366 97.886 L 405.886 97.886 C 406.659 97.886 407.399 97.729 408.106 97.416 C 408.806 97.096 409.432 96.666 409.986 96.126 C 410.539 95.586 410.996 94.949 411.356 94.216 C 411.57 93.783 411.738 93.336 411.859 92.876 Z M 536.823 55.506 L 537.823 55.506 L 537.823 91.876 L 536.823 91.876 Z M 553.103 51.526 L 522.603 51.526 C 522.63 51.185 522.684 50.851 522.764 50.526 L 553.103 50.526 Z M 559.256 46.884 C 559.706 47.247 560.115 47.678 560.483 48.176 C 561.083 48.983 561.556 49.929 561.903 51.016 C 562.256 52.109 562.433 53.276 562.433 54.516 L 562.433 90.026 C 562.433 91.246 562.256 92.396 561.903 93.476 C 561.556 94.549 561.083 95.486 560.483 96.286 C 559.883 97.079 559.179 97.713 558.373 98.186 C 557.566 98.653 556.706 98.886 555.793 98.886 L 529.453 98.886 L 529.452 97.886 L 554.793 97.886 C 555.706 97.886 556.566 97.653 557.373 97.186 C 558.179 96.713 558.883 96.079 559.483 95.286 C 560.083 94.486 560.556 93.549 560.903 92.476 C 561.256 91.396 561.433 90.246 561.433 89.026 L 561.433 53.516 C 561.433 52.276 561.256 51.109 560.903 50.016 C 560.556 48.929 560.083 47.983 559.483 47.176 C 559.409 47.076 559.333 46.978 559.256 46.884 Z M 262.297 45.586 L 263.297 45.586 L 263.297 51.176 L 253.767 51.176 L 253.767 84.256 C 253.767 85.476 253.597 86.589 253.257 87.596 C 252.917 88.609 252.497 89.489 251.997 90.236 C 251.551 90.898 251.067 91.446 250.544 91.876 L 247.607 91.876 C 248.14 91.783 248.714 91.506 249.327 91.046 C 249.934 90.593 250.49 89.989 250.997 89.236 C 251.497 88.489 251.917 87.609 252.257 86.596 C 252.597 85.589 252.767 84.476 252.767 83.256 L 252.767 50.176 L 262.297 50.176 Z M 275.627 85.136 L 276.627 85.136 L 276.627 92.906 C 276.627 93.753 276.45 94.539 276.097 95.266 C 275.744 95.993 275.28 96.626 274.707 97.166 C 274.134 97.706 273.477 98.126 272.737 98.426 C 271.997 98.733 271.24 98.886 270.467 98.886 L 237.777 98.886 C 237.805 98.547 237.861 98.213 237.943 97.886 L 269.467 97.886 C 270.24 97.886 270.997 97.733 271.737 97.426 C 272.477 97.126 273.134 96.706 273.707 96.166 C 274.28 95.626 274.744 94.993 275.097 94.266 C 275.45 93.539 275.627 92.753 275.627 91.906 Z M 391.297 159.235 L 392.297 159.235 L 392.297 164.825 L 382.767 164.825 L 382.767 197.905 C 382.767 199.125 382.597 200.238 382.257 201.245 C 381.917 202.258 381.497 203.138 380.997 203.885 C 380.551 204.547 380.067 205.095 379.544 205.525 L 376.607 205.525 C 377.14 205.432 377.714 205.155 378.327 204.695 C 378.934 204.242 379.49 203.638 379.997 202.885 C 380.497 202.138 380.917 201.258 381.257 200.245 C 381.597 199.238 381.767 198.125 381.767 196.905 L 381.767 163.825 L 391.297 163.825 Z M 404.627 198.785 L 405.627 198.785 L 405.627 206.555 C 405.627 207.402 405.45 208.188 405.097 208.915 C 404.744 209.642 404.28 210.275 403.707 210.815 C 403.134 211.355 402.477 211.775 401.737 212.075 C 400.997 212.382 400.24 212.535 399.467 212.535 L 366.777 212.535 C 366.805 212.196 366.861 211.862 366.943 211.535 L 398.467 211.535 C 399.24 211.535 399.997 211.382 400.737 211.075 C 401.477 210.775 402.134 210.355 402.707 209.815 C 403.28 209.275 403.744 208.642 404.097 207.915 C 404.45 207.188 404.627 206.402 404.627 205.555 Z M 578.936 160.533 C 579.386 160.896 579.795 161.327 580.163 161.825 C 580.763 162.632 581.236 163.578 581.583 164.665 C 581.936 165.758 582.113 166.925 582.113 168.165 L 582.113 203.675 C 582.113 204.895 581.936 206.045 581.583 207.125 C 581.236 208.198 580.756 209.135 580.143 209.935 C 579.536 210.728 578.829 211.362 578.023 211.835 C 577.209 212.302 576.346 212.535 575.433 212.535 L 555.043 212.535 C 554.13 212.535 553.273 212.302 552.473 211.835 C 551.782 211.423 551.164 210.889 550.62 210.234 C 550.891 210.457 551.175 210.657 551.473 210.835 C 552.273 211.302 553.13 211.535 554.043 211.535 L 574.433 211.535 C 575.346 211.535 576.209 211.302 577.023 210.835 C 577.829 210.362 578.536 209.728 579.143 208.935 C 579.756 208.135 580.236 207.198 580.583 206.125 C 580.936 205.045 581.113 203.895 581.113 202.675 L 581.113 167.165 C 581.113 165.925 580.936 164.758 580.583 163.665 C 580.236 162.578 579.763 161.632 579.163 160.825 C 579.089 160.725 579.013 160.627 578.936 160.533 Z M 451.064 116.294 L 438.984 116.294 L 438.984 122.864 L 430.654 122.864 L 430.654 121.864 L 437.984 121.864 L 437.984 115.294 L 451.064 115.294 Z M 457.255 111.571 C 457.706 111.938 458.116 112.369 458.484 112.864 C 459.077 113.677 459.551 114.621 459.904 115.694 C 460.257 116.774 460.434 117.934 460.434 119.174 L 460.434 132.254 C 460.434 134.127 460.051 135.627 459.284 136.754 C 458.524 137.881 457.534 138.761 456.314 139.394 L 438.984 148.464 L 438.984 156.494 L 437.984 156.494 L 437.984 147.464 L 455.314 138.394 C 456.534 137.761 457.524 136.881 458.284 135.754 C 459.051 134.627 459.434 133.127 459.434 131.254 L 459.434 118.174 C 459.434 116.934 459.257 115.774 458.904 114.694 C 458.551 113.621 458.077 112.677 457.484 111.864 C 457.409 111.764 457.333 111.666 457.255 111.571 Z M 459.434 157.494 L 460.434 157.494 L 460.434 163.544 L 430.654 163.544 L 430.654 162.544 L 459.434 162.544 Z M 503.466 51.526 L 492.867 51.526 L 492.867 63.656 L 485.626 63.656 L 485.626 62.656 L 491.867 62.656 L 491.867 50.526 L 503.466 50.526 Z M 511.836 45.586 L 512.836 45.586 L 512.836 90.026 C 512.836 91.246 512.66 92.396 512.307 93.476 C 511.953 94.549 511.473 95.486 510.867 96.286 C 510.253 97.079 509.543 97.713 508.737 98.186 C 507.93 98.653 507.07 98.886 506.156 98.886 L 493.316 98.886 L 493.316 97.886 L 505.156 97.886 C 506.07 97.886 506.93 97.653 507.737 97.186 C 508.543 96.713 509.253 96.079 509.867 95.286 C 510.473 94.486 510.953 93.549 511.307 92.476 C 511.66 91.396 511.836 90.246 511.836 89.026 Z M 493.402 175.725 L 494.589 175.725 C 494.495 176.545 494.265 177.325 493.899 178.065 C 493.539 178.805 493.082 179.445 492.529 179.985 C 491.982 180.518 491.355 180.945 490.649 181.265 C 489.949 181.578 489.212 181.735 488.439 181.735 L 486.303 181.735 C 485.945 181.341 485.584 181.008 485.219 180.735 L 487.439 180.735 C 488.212 180.735 488.949 180.578 489.649 180.265 C 490.355 179.945 490.982 179.518 491.529 178.985 C 492.082 178.445 492.539 177.805 492.899 177.065 C 493.113 176.632 493.281 176.185 493.402 175.725 Z M 486.495 181.953 C 486.847 182.247 487.195 182.598 487.539 183.005 C 487.972 183.518 488.359 184.115 488.699 184.795 C 489.039 185.475 489.309 186.218 489.509 187.025 C 489.709 187.838 489.809 188.712 489.809 189.645 L 489.809 203.675 C 489.809 204.895 489.632 206.045 489.279 207.125 C 488.925 208.198 488.445 209.135 487.839 209.935 C 487.232 210.728 486.522 211.362 485.709 211.835 C 484.902 212.302 484.042 212.535 483.129 212.535 L 465.129 212.535 C 464.215 212.535 463.359 212.302 462.559 211.835 C 461.868 211.423 461.251 210.889 460.707 210.235 C 460.977 210.457 461.261 210.658 461.559 210.835 C 462.359 211.302 463.215 211.535 464.129 211.535 L 482.129 211.535 C 483.042 211.535 483.902 211.302 484.709 210.835 C 485.522 210.362 486.232 209.728 486.839 208.935 C 487.445 208.135 487.925 207.198 488.279 206.125 C 488.632 205.045 488.809 203.895 488.809 202.675 L 488.809 188.645 C 488.809 187.712 488.709 186.838 488.509 186.025 C 488.309 185.218 488.039 184.475 487.699 183.795 C 487.359 183.115 486.972 182.518 486.539 182.005 C 486.524 181.988 486.51 181.97 486.495 181.953 Z M 448.585 175.725 L 449.772 175.725 C 449.678 176.545 449.448 177.325 449.082 178.065 C 448.722 178.805 448.265 179.445 447.712 179.985 C 447.165 180.518 446.538 180.945 445.832 181.265 C 445.132 181.578 444.395 181.735 443.622 181.735 L 441.486 181.735 C 441.128 181.341 440.767 181.008 440.402 180.735 L 442.622 180.735 C 443.395 180.735 444.132 180.578 444.832 180.265 C 445.538 179.945 446.165 179.518 446.712 178.985 C 447.265 178.445 447.722 177.805 448.082 177.065 C 448.296 176.632 448.464 176.185 448.585 175.725 Z M 441.678 181.953 C 442.03 182.247 442.378 182.598 442.722 183.005 C 443.155 183.518 443.542 184.115 443.882 184.795 C 444.222 185.475 444.492 186.218 444.692 187.025 C 444.892 187.838 444.992 188.712 444.992 189.645 L 444.992 203.675 C 444.992 204.895 444.815 206.045 444.462 207.125 C 444.108 208.198 443.628 209.135 443.022 209.935 C 442.415 210.728 441.705 211.362 440.892 211.835 C 440.085 212.302 439.225 212.535 438.312 212.535 L 420.312 212.535 C 419.398 212.535 418.542 212.302 417.742 211.835 C 417.051 211.423 416.434 210.889 415.89 210.235 C 416.16 210.457 416.444 210.658 416.742 210.835 C 417.542 211.302 418.398 211.535 419.312 211.535 L 437.312 211.535 C 438.225 211.535 439.085 211.302 439.892 210.835 C 440.705 210.362 441.415 209.728 442.022 208.935 C 442.628 208.135 443.108 207.198 443.462 206.125 C 443.815 205.045 443.992 203.895 443.992 202.675 L 443.992 188.645 C 443.992 187.712 443.892 186.838 443.692 186.025 C 443.492 185.218 443.222 184.475 442.882 183.795 C 442.542 183.115 442.155 182.518 441.722 182.005 C 441.707 181.988 441.693 181.97 441.678 181.953 Z M 364.402 62.076 L 365.589 62.076 C 365.495 62.896 365.265 63.676 364.899 64.416 C 364.539 65.156 364.082 65.796 363.529 66.336 C 362.982 66.869 362.355 67.296 361.649 67.616 C 360.949 67.929 360.212 68.086 359.439 68.086 L 357.303 68.086 C 356.945 67.692 356.584 67.359 356.219 67.086 L 358.439 67.086 C 359.212 67.086 359.949 66.929 360.649 66.616 C 361.355 66.296 361.982 65.869 362.529 65.336 C 363.082 64.796 363.539 64.156 363.899 63.416 C 364.113 62.983 364.281 62.536 364.402 62.076 Z M 357.495 68.304 C 357.847 68.598 358.195 68.949 358.539 69.356 C 358.972 69.869 359.359 70.466 359.699 71.146 C 360.039 71.826 360.309 72.569 360.509 73.376 C 360.709 74.189 360.809 75.063 360.809 75.996 L 360.809 90.026 C 360.809 91.246 360.632 92.396 360.279 93.476 C 359.925 94.549 359.445 95.486 358.839 96.286 C 358.232 97.079 357.522 97.713 356.709 98.186 C 355.902 98.653 355.042 98.886 354.129 98.886 L 336.129 98.886 C 335.215 98.886 334.359 98.653 333.559 98.186 C 332.868 97.774 332.251 97.24 331.707 96.586 C 331.977 96.809 332.261 97.009 332.559 97.186 C 333.359 97.653 334.215 97.886 335.129 97.886 L 353.129 97.886 C 354.042 97.886 354.902 97.653 355.709 97.186 C 356.522 96.713 357.232 96.079 357.839 95.286 C 358.445 94.486 358.925 93.549 359.279 92.476 C 359.632 91.396 359.809 90.246 359.809 89.026 L 359.809 74.996 C 359.809 74.063 359.709 73.189 359.509 72.376 C 359.309 71.569 359.039 70.826 358.699 70.146 C 358.359 69.466 357.972 68.869 357.539 68.356 C 357.524 68.339 357.51 68.321 357.495 68.304 Z M 319.585 62.076 L 320.772 62.076 C 320.678 62.896 320.448 63.676 320.082 64.416 C 319.722 65.156 319.265 65.796 318.712 66.336 C 318.165 66.869 317.538 67.296 316.832 67.616 C 316.132 67.929 315.395 68.086 314.622 68.086 L 312.486 68.086 C 312.128 67.692 311.767 67.359 311.402 67.086 L 313.622 67.086 C 314.395 67.086 315.132 66.929 315.832 66.616 C 316.538 66.296 317.165 65.869 317.712 65.336 C 318.265 64.796 318.722 64.156 319.082 63.416 C 319.296 62.983 319.464 62.536 319.585 62.076 Z M 312.678 68.304 C 313.03 68.598 313.378 68.949 313.722 69.356 C 314.155 69.869 314.542 70.466 314.882 71.146 C 315.222 71.826 315.492 72.569 315.692 73.376 C 315.892 74.189 315.992 75.063 315.992 75.996 L 315.992 90.026 C 315.992 91.246 315.815 92.396 315.462 93.476 C 315.108 94.549 314.628 95.486 314.022 96.286 C 313.415 97.079 312.705 97.713 311.892 98.186 C 311.085 98.653 310.225 98.886 309.312 98.886 L 291.312 98.886 C 290.398 98.886 289.542 98.653 288.742 98.186 C 288.051 97.774 287.434 97.24 286.89 96.586 C 287.16 96.809 287.444 97.009 287.742 97.186 C 288.542 97.653 289.398 97.886 290.312 97.886 L 308.312 97.886 C 309.225 97.886 310.085 97.653 310.892 97.186 C 311.705 96.713 312.415 96.079 313.022 95.286 C 313.628 94.486 314.108 93.549 314.462 92.476 C 314.815 91.396 314.992 90.246 314.992 89.026 L 314.992 74.996 C 314.992 74.063 314.892 73.189 314.692 72.376 C 314.492 71.569 314.222 70.826 313.882 70.146 C 313.542 69.466 313.155 68.869 312.722 68.356 C 312.707 68.339 312.693 68.321 312.678 68.304 Z M 572.743 165.175 L 556.833 165.175 L 556.833 205.525 L 555.833 205.525 L 555.833 164.175 L 572.743 164.175 Z M 525.226 181.735 L 511.706 181.735 L 511.706 205.485 L 510.706 205.485 L 510.706 180.735 L 525.226 180.735 Z M 396.226 68.086 L 382.706 68.086 L 382.706 91.836 L 381.706 91.836 L 381.706 67.086 L 396.226 67.086 Z M 351.409 68.086 L 337.919 68.086 L 337.919 91.876 L 336.919 91.876 L 336.919 67.086 L 351.409 67.086 Z M 306.592 68.086 L 293.102 68.086 L 293.102 91.876 L 292.102 91.876 L 292.102 67.086 L 306.592 67.086 Z M 435.592 181.735 L 422.102 181.735 L 422.102 205.525 L 421.102 205.525 L 421.102 180.735 L 435.592 180.735 Z M 480.409 181.735 L 466.919 181.735 L 466.919 205.525 L 465.919 205.525 L 465.919 180.735 L 480.409 180.735 Z" style="white-space: pre; fill: rgb(255, 255, 255); fill-opacity: 0.75;"/>
  <g transform="matrix(1, 0, 0, 1, -5, 0)">
    <text x="238.017" y="95.886" style="fill: url(#gradient-0); font-family: &quot;Atomic Age&quot;; font-size: 72px; white-space: pre;">LoopMID</text>
    <text x="367.017" y="209.535" style="fill: url(#gradient-1); font-family: &quot;Atomic Age&quot;; font-size: 72px; white-space: pre;">LoopOGG</text>
    <text x="425.974" y="160.544" style="fill: url(#gradient-2); font-family: &quot;Atomic Age&quot;; font-size: 72px; white-space: pre;">2</text>
  </g>
</svg>