<?xml version="1.0" encoding="utf-8"?>
<svg viewBox="0 0 250 250" xmlns="http://www.w3.org/2000/svg" xmlns:bx="https://boxy-svg.com">
  <defs>
    <style id="bx-google-fonts">@import url(https://fonts.googleapis.com/css?family=Snowburst+One:400);</style>
  </defs>
  <filter id="blur">
    <feGaussianBlur in="SourceGraphic" stdDeviation="5"/>
  </filter>
  <filter id="light-blur">
    <feGaussianBlur in="SourceGraphic" stdDeviation="2"/>
  </filter>
  <path d="M 113.479 153.268 C 119.723 153.421 125.227 151.246 128.232 147.889 C 129.299 146.693 129.991 145.281 130.124 145.003 C 130.203 144.837 130.269 144.661 130.325 144.479 L 138.213 118.49 C 138.68 116.957 139.957 116.649 141.003 117.866 C 141.811 118.807 142.68 119.875 143.563 121.062 C 147.199 125.946 147.492 132.371 145.553 137.554 C 143.613 142.735 139.946 144.198 141.122 145.837 C 142.302 147.482 146.924 143.397 149.932 138.539 C 152.938 133.68 153.274 125.555 150.562 118.903 C 147.848 112.25 143.896 107.973 143.142 104.502 C 143.095 104.28 143.047 104.062 142.999 103.85 C 142.92 103.49 142.952 102.876 143.074 102.481 L 143.291 101.764 C 143.883 99.818 142.786 97.761 140.836 97.17 C 138.89 96.579 136.834 97.679 136.244 99.624 L 126.681 131.135 C 126.214 132.668 124.78 133.139 123.338 132.443 C 120.691 131.164 117.497 130.38 114.042 130.295 C 104.719 130.066 97.037 135.025 96.881 141.371 C 96.726 147.714 104.156 153.042 113.479 153.268 Z" fill="#54FF54" filter="url(#blur)"/>
  <path d="M 113.479 153.268 C 119.723 153.421 125.227 151.246 128.232 147.889 C 129.299 146.693 129.991 145.281 130.124 145.003 C 130.203 144.837 130.269 144.661 130.325 144.479 L 138.213 118.49 C 138.68 116.957 139.957 116.649 141.003 117.866 C 141.811 118.807 142.68 119.875 143.563 121.062 C 147.199 125.946 147.492 132.371 145.553 137.554 C 143.613 142.735 139.946 144.198 141.122 145.837 C 142.302 147.482 146.924 143.397 149.932 138.539 C 152.938 133.68 153.274 125.555 150.562 118.903 C 147.848 112.25 143.896 107.973 143.142 104.502 C 143.095 104.28 143.047 104.062 142.999 103.85 C 142.92 103.49 142.952 102.876 143.074 102.481 L 143.291 101.764 C 143.883 99.818 142.786 97.761 140.836 97.17 C 138.89 96.579 136.834 97.679 136.244 99.624 L 126.681 131.135 C 126.214 132.668 124.78 133.139 123.338 132.443 C 120.691 131.164 117.497 130.38 114.042 130.295 C 104.719 130.066 97.037 135.025 96.881 141.371 C 96.726 147.714 104.156 153.042 113.479 153.268 Z" fill="#FFFFFF"/>
  <ellipse cx="125" cy="125" rx="90" ry="90" style="fill: none; stroke: rgb(255, 255, 255); stroke-width: 10;" filter="url(#blur)"/>
  <ellipse cx="125" cy="125" rx="90" ry="90" style="fill: none; stroke: rgb(255, 255, 255); stroke-width: 10;"/>
  <g filter="url(#blur)" transform="matrix(0.953717, -0.300706, 0.300706, 0.953717, -0.444324, 59.699207)">
    <path d="M 22.058 55 L 150 55" style="fill: none; stroke-width: 10; stroke-linecap: round; stroke: rgb(255, 84, 84);"/>
    <path d="M 177.942 55 L 100 190" style="fill: none; stroke-width: 10; stroke-linecap: round; stroke: rgb(255, 84, 84);"/>
    <path d="M 100 190 L 22.058 55" style="fill: none; stroke-width: 10; stroke-linecap: round; stroke: rgb(255, 84, 84);"/>
    <path d="M -29.884 54.549 L -13.576 82.031 L -46.192 82.031 L -29.884 54.549 Z" transform="matrix(0, 1, -1, 0, 224.385021, 84.432902)" style="fill: rgb(255, 84, 84);" bx:shape="triangle -46.192 54.549 32.616 27.482 0.5 0 1@88330eba"/>
  </g>
  <g transform="matrix(0.953717, -0.300706, 0.300706, 0.953717, -0.444324, 59.699207)">
    <path d="M 22.058 55 L 150 55" style="fill: none; stroke: rgb(255, 255, 255); stroke-width: 10; stroke-linecap: round;"/>
    <path d="M 177.942 55 L 100 190" style="fill: none; stroke: rgb(255, 255, 255); stroke-width: 10; stroke-linecap: round;"/>
    <path d="M 100 190 L 22.058 55" style="fill: none; stroke: rgb(255, 255, 255); stroke-width: 10; stroke-linecap: round;"/>
    <path d="M -29.884 54.549 L -13.576 82.031 L -46.192 82.031 L -29.884 54.549 Z" transform="matrix(0, 1, -1, 0, 224.385021, 84.432902)" style="fill: rgb(255, 255, 255);" bx:shape="triangle -46.192 54.549 32.616 27.482 0.5 0 1@88330eba"/>
  </g>
  <g transform="matrix(-0.953717, 0.300706, -0.300706, -0.953717, 250.444351, 190.314499)" filter="url(#blur)" bx:origin="0.5 0.407">
    <path d="M 22.058 55 L 150 55" style="fill: none; stroke-width: 10; stroke-linecap: round; stroke: rgb(84, 84, 255);"/>
    <path d="M 177.942 55 L 100 190" style="fill: none; stroke-width: 10; stroke-linecap: round; stroke: rgb(84, 84, 255);"/>
    <path d="M 100 190 L 22.058 55" style="fill: none; stroke-width: 10; stroke-linecap: round; stroke: rgb(84, 84, 255);"/>
    <path d="M -29.884 54.549 L -13.576 82.031 L -46.192 82.031 L -29.884 54.549 Z" transform="matrix(0, 1, -1, 0, 224.385021, 84.432902)" style="fill: rgb(84, 84, 255);" bx:shape="triangle -46.192 54.549 32.616 27.482 0.5 0 1@88330eba"/>
  </g>
  <g transform="matrix(-0.953717, 0.300706, -0.300706, -0.953717, 250.444351, 190.314499)" bx:origin="0.5 0.407">
    <path d="M 22.058 55 L 150 55" style="fill: none; stroke: rgb(255, 255, 255); stroke-width: 10; stroke-linecap: round;"/>
    <path d="M 177.942 55 L 100 190" style="fill: none; stroke: rgb(255, 255, 255); stroke-width: 10; stroke-linecap: round;"/>
    <path d="M 100 190 L 22.058 55" style="fill: none; stroke: rgb(255, 255, 255); stroke-width: 10; stroke-linecap: round;"/>
    <path d="M -29.884 54.549 L -13.576 82.031 L -46.192 82.031 L -29.884 54.549 Z" transform="matrix(0, 1, -1, 0, 224.385021, 84.432902)" style="fill: rgb(255, 255, 255);" bx:shape="triangle -46.192 54.549 32.616 27.482 0.5 0 1@88330eba"/>
  </g>
  <text x="45.797" y="135.793" style="fill: rgb(0, 0, 0); stroke: rgb(0,0,0); stroke-width:1; font-family: &quot;Snowburst One&quot;; font-size: 36px; white-space: pre;" filter="url(#light-blur)">Convert</text>
  <text x="45.797" y="135.793" style="fill: rgb(255, 255, 255); font-family: &quot;Snowburst One&quot;; font-size: 36px; white-space: pre;">Convert</text>
</svg>
