<?xml version="1.0" encoding="utf-8"?>
<svg id="_x32_" style="width: 256px; height: 256px; opacity: 1;" x="0px" y="0px" viewBox="0 0 512 512" xmlns="http://www.w3.org/2000/svg">
  <style type="text/css">
	.st0{fill:#4B4B4B;}
</style>
  <g>
    <path class="st0" d="M485.651,136.366c-3.393-12.249-8.423-24.645-14.833-36.662c-12.819-24.051-31.224-46.604-52.574-64.021&#10;&#9;&#9;c-14.216-11.624-29.705-20.973-45.578-27.236h-0.008C357.755,2.561,344.041-0.008,332.047,0c-13.36,0.016-24.513,3.14-33.584,8.47&#10;&#9;&#9;L107.093,146.701c9.865,1.782,19.962,4.644,30.205,8.686c29.48,11.639,56.285,31.084,78.469,54.811&#10;&#9;&#9;c22.176,23.749,39.786,51.811,50.468,81.269c3.957,10.922,6.919,22.045,8.809,33.206l215.69-155.795&#10;&#9;&#9;C490.433,158.38,488.713,147.426,485.651,136.366z" style="fill: rgb(255, 255, 255);"/>
    <path class="st0" d="M 248.31 351.422 C 248.333 327.279 240.866 300.992 227.662 276.27 C 214.495 251.549 195.643 228.47 173.706 210.552 C 159.081 198.597 143.115 188.939 126.624 182.444 C 111.159 176.335 96.758 173.605 83.961 173.605 C 78.137 173.613 72.684 174.191 67.562 175.256 L 50.531 187.558 L 49.845 187.974 C 41.214 193.22 34.356 200.54 29.312 210.413 C 24.306 220.271 21.205 232.813 21.197 248.193 L 21.197 422.422 L 248.31 512 L 248.31 352.541 L 248.31 351.423 L 248.31 351.422 Z" style="fill: rgb(255, 255, 255);"/>
    <polygon class="st0" points="422.925,253.748 422.925,325.876 368.014,365.036 368.014,293.41 277.397,358.866 277.397,504.032 &#10;&#9;&#9;490.803,349.88 490.803,204.721 &#9;" style="fill: rgb(255, 255, 255);"/>
  </g>
</svg>